/* XPM */
static char * 6_xpm[] = {
"64 64 33 1",
" 	c #E9AE7C",
".	c #D49565",
"+	c #9C5E32",
"@	c #AD6E41",
"#	c #C68353",
"$	c #D09668",
"%	c #B87749",
"&	c #DDA06F",
"*	c #BE8357",
"=	c #F2BC90",
"-	c #FFD1AB",
";	c #F7C59B",
">	c #793F19",
",	c #9C6037",
"'	c #AE7044",
")	c #A45B36",
"!	c #D39668",
"~	c #96522D",
"{	c #996241",
"]	c #A9714F",
"^	c #8B4B27",
"/	c #C28258",
"(	c #C28A67",
"_	c #B37B59",
":	c #B9815F",
"<	c #E8B997",
"[	c #000000",
"}	c #D19E7C",
"|	c #A15C35",
"1	c #1A1A1A",
"2	c #AFBECC",
"3	c #B26C43",
"4	c #5890AD",
"                                                                ",
"                                                                ",
"                                                                ",
" .     +@###  $%&                               +.  *#        . ",
" .     +@###  $%&                               +.  *#        . ",
".@#                                                          .@#",
" .                                                            . ",
" .                                                            . ",
"         =---;        -;    =---          --          ; ;-      ",
"         =---;        -;    =---          --          ; ;-      ",
">>>>>>>>>,###'>>>>>>>>#'>>>>,###>>>>>>>>>>##>>>>>>>>>>'>'#>>>>>>",
"################################################################",
"################################################################",
"))))))))))))))))))))))))))))))))))))))))))))))))))))))))))))))))",
"))))))))))))))))))))))))))))))))))))))))))))))))))))))))))))))))",
">>>>>>>>>>>>>>>>>>>>>>>>>>>>>>>>>>>>>>>>>>>>>>>>>>>>>>>>>>>>>>>>",
"   !~{]]]]]]]]]]]]]]]]]]]]]]]]]]]]]]]]]]]]]]]]]]]]]]]]]]]]]^/   ",
"   !~{]]]]]]]]]]]]]]]]]]]]]]]]]]]]]]]]]]]]]]]]]]]]]]]]]]]]]^/   ",
"   !~{]((((((((((((((((((((((((((((((((((((((((((((((((((_]^/   ",
"   !~{:(<<<<<<<<<<<<<<<<<[[[[[[[[[[[[[[[[<<<<<<<<<<<<<<<}(]^/   ",
"   !~{:(<<<<<<<<<<<<<<<<<[[[[[[[[[[[[[[[[<<<<<<<<<<<<<<<}(]^/   ",
"   !~{:<<<<<<<<<<<<<<<<<<[[[[[[[[[[[[[[[[<<<<<<<<<<<<<<<<}]^|$  ",
"   !~{:<<<<<<<<<<<<<<<[[[1112222222222111[[[<<<<<<<<<<<<<}]^|$  ",
"   !~{:<<<<<<<<<<<<<<<[[[1112222222222111[[[<<<<<<<<<<<<<}]^|$  ",
"*$ !~{:<<<<<<<<<<<<<<<[[[1112222222222111[[[<<<<<<<<<<<<<}]^3&  ",
"*$ !~{:<<<<<<<<<<<<<<<1112222224444444444111<<<<<<<<<<<<<}]^3&  ",
".& !~{:<<<<<<<<<<<<<<<1112222224444444444111<<<<<<<<<<<<<}]^3&  ",
".& !~{:<<<<<<<<<<<<<<<1112222224444444444111<<<<<<<<<<<<<}]^3&  ",
".& !~{:<<<<<<<<<<<<<<<1112222221111111111111<<<<<<<<<<<<<}]^/   ",
".& !~{:<<<<<<<<<<<<<<<1112222221111111111111<<<<<<<<<<<<<}]^/   ",
".& !~{:<<<<<<<<<<<<<<<1112222221111111111111<<<<<<<<<<<<<}]^/   ",
"   !~{:<<<<<<<<<<<<<<<1112222222222222111111<<<<<<<<<<<<<}]^|$  ",
"   !~{:<<<<<<<<<<<<<<<1112222222222222111111<<<<<<<<<<<<<}]^|$  ",
"   !~{:<<<<<<<<<<<<<<<1112222222222222111111<<<<<<<<<<<<<}]^|$  ",
"   !~{:<<<<<<<<<<<<<<<1112222224444222222111<<<<<<<<<<<<<}]^3&  ",
"&  !~{:<<<<<<<<<<<<<<<1112222224444222222111<<<<<<<<<<<<<}]^/   ",
"&  !~{:<<<<<<<<<<<<<<<1112222224444222222111<<<<<<<<<<<<<}]^/   ",
"   !~{:<<<<<<<<<<<<<<<1112222224444222222111<<<<<<<<<<<<<}]^/  +",
"   !~{:<<<<<<<<<<<<<<<1112222221111222222111<<<<<<<<<<<<<}]^/  +",
"   !~{:<<<<<<<<<<<<<<<1112222221111222222111<<<<<<<<<<<<<}]^/  +",
"$  !~{:<<<<<<<<<<<<<<<1112222221111222222111<<<<<<<<<<<<<}]^/  +",
"$  !~{:<<<<<<<<<<<<<<<1114442222222222444111<<<<<<<<<<<<<}]^/  +",
"&  !~{:<<<<<<<<<<<<<<<1114442222222222444111<<<<<<<<<<<<<}]^/  #",
"   !~{:<<<<<<<<<<<<<<<1114442222222222444111<<<<<<<<<<<<<}]^/  #",
"   !~{:<<<<<<<<<<<<<<<[[[1114444444444111[[[<<<<<<<<<<<<<}]^/  #",
"   !~{:<<<<<<<<<<<<<<<[[[1114444444444111[[[<<<<<<<<<<<<<}]^/   ",
"   !~{:<<<<<<<<<<<<<<<[[[1114444444444111[[[<<<<<<<<<<<<<}]^/   ",
"   !~{:<<<<<<<<<<<<<<<<<<[[[[[[[[[[[[[[[[<<<<<<<<<<<<<<<<}]^/  #",
"   !~{:(<<<<<<<<<<<<<<<<<[[[[[[[[[[[[[[[[<<<<<<<<<<<<<<<}(]^/   ",
"   !~{:(<<<<<<<<<<<<<<<<<[[[[[[[[[[[[[[[[<<<<<<<<<<<<<<<}(]^/   ",
"   !~{]((((((((((((((((((((((((((((((((((((((((((((((((((_]^/   ",
"   !~{]]]]]]]]]]]]]]]]]]]]]]]]]]]]]]]]]]]]]]]]]]]]]]]]]]]]]^/   ",
"   !~{]]]]]]]]]]]]]]]]]]]]]]]]]]]]]]]]]]]]]]]]]]]]]]]]]]]]]^/   ",
">>>>>>>>>>>>>>>>>>>>>>>>>>>>>>>>>>>>>>>>>>>>>>>>>>>>>>>>>>>>>>>>",
">>>>>>>>>>>>>>>>>>>>>>>>>>>>>>>>>>>>>>>>>>>>>>>>>>>>>>>>>>>>>>>>",
"----------------------------------------------------------------",
" .                                                            . ",
" .                                                            . ",
".@#                                                          .@#",
".@#                                                          .@#",
" .                                               @#&  $@&     . ",
"         $+%##.  +.                                             ",
"         $+%##.  +.                                             ",
"                                                                "};
