/* XPM */
static char * Grass_xpm[] = {
"64 64 117 2",
"  	c #C1CDA1",
". 	c #A7B778",
"+ 	c #A5B675",
"@ 	c #A6B777",
"# 	c #A7B878",
"$ 	c #A6B778",
"% 	c #C1CEA1",
"& 	c #7B993C",
"* 	c #78963A",
"= 	c #79973B",
"- 	c #79983B",
"; 	c #7A983B",
"> 	c #7A993B",
", 	c #7A993C",
"' 	c #7C993C",
") 	c #759439",
"! 	c #759539",
"~ 	c #769539",
"{ 	c #76963A",
"] 	c #77963A",
"^ 	c #769639",
"/ 	c #739438",
"( 	c #6D8E36",
"_ 	c #739338",
": 	c #729238",
"< 	c #729338",
"[ 	c #6C8E36",
"} 	c #719238",
"| 	c #76953A",
"1 	c #6D8D36",
"2 	c #5D8130",
"3 	c #5D8230",
"4 	c #6D8F36",
"5 	c #6B8D35",
"6 	c #5D802F",
"7 	c #5C812F",
"8 	c #739439",
"9 	c #638632",
"0 	c #5A7F2F",
"a 	c #6E8F36",
"b 	c #597E2E",
"c 	c #618532",
"d 	c #5C802F",
"e 	c #749439",
"f 	c #6D8D35",
"g 	c #638532",
"h 	c #597D2E",
"i 	c #628532",
"j 	c #6C8D35",
"k 	c #698B34",
"l 	c #54792C",
"m 	c #6A8B35",
"n 	c #6A8C35",
"o 	c #78973A",
"p 	c #77973A",
"q 	c #5E8230",
"r 	c #739339",
"s 	c #749339",
"t 	c #597E2F",
"u 	c #698A34",
"v 	c #53792C",
"w 	c #6A8B34",
"x 	c #6E8E36",
"y 	c #648632",
"z 	c #5B7F2F",
"A 	c #6F8F37",
"B 	c #5A7F2E",
"C 	c #779639",
"D 	c #6B8C35",
"E 	c #6F9037",
"F 	c #5F8330",
"G 	c #5F8230",
"H 	c #5B802F",
"I 	c #658733",
"J 	c #648732",
"K 	c #7F9C3D",
"L 	c #8BA441",
"M 	c #8AA441",
"N 	c #7E9C3C",
"O 	c #A4B751",
"P 	c #A3B751",
"Q 	c #8BA541",
"R 	c #A9BB56",
"S 	c #9CB14A",
"T 	c #7E9B3C",
"U 	c #9BB049",
"V 	c #AABC57",
"W 	c #7D9B3C",
"X 	c #A4B752",
"Y 	c #A5B853",
"Z 	c #ABBC58",
"` 	c #91A943",
" .	c #B3C362",
"..	c #B3C361",
"+.	c #92AA44",
"@.	c #91AA44",
"#.	c #B4C363",
"$.	c #B3C462",
"%.	c #91A944",
"&.	c #9AAF48",
"*.	c #89A340",
"=.	c #7E9C3D",
"-.	c #B4C362",
";.	c #B4C463",
">.	c #AABC58",
",.	c #B2C260",
"'.	c #79973A",
").	c #B2C361",
"!.	c #A4B852",
"~.	c #78973B",
"{.	c #7F9D3D",
"].	c #88A340",
"^.	c #89A440",
"/.	c #90A843",
"(.	c #9BB04A",
"_.	c #8CA541",
":.	c #78983B",
"  . + @ . . . . . . . . . . . . . . . . # # # # # # # # # # # # # # # # # # # # # # # # # . . . . . . . . . . . . . . . $ + . % ",
". & * = - - - - - - ; ; ; ; ; ; ; ; ; > , , , , , , , , , , , , , , , , , , , , , , , , , > ; ; ; ; ; ; ; ; - - - - - - - * ' . ",
"+ * ) ! ! ! ! ! ! ~ ~ ~ ~ ~ ~ ~ ~ { { { { { { { ] ] ] ] ] ] ] ] ] ] ] ] ] ] ] ] ] { { { { { { ~ ~ ~ ~ ~ ~ ~ ~ ~ ! ! ! ! ! ! * + ",
"@ = ! ! ! ! ! ! ~ ~ ~ ~ ~ ~ ~ ~ { { { { { ] ] ] ] ] ] ] ] ] ] ] ] ] ] ] ] ] ] ] ] ] ] ] { { { { { ~ ~ ~ ~ ~ ~ ~ ~ ! ! ! ! ! - $ ",
". - ! ! ! ! ! ~ ~ ~ ~ ~ ~ ~ { { { { { ] ] ] ] ] ^ ^ ] ] ] ] ] ] ] ] ] ] ] ] ] ] ] ] ] ] ] ] { { { { ! ! ~ ~ ! ! ~ ~ ! ! ! ! - . ",
". - ! ! ! ! ~ ~ ~ ~ ~ ~ ~ { { { { ] ] ] ] ] ] / ( ( _ ] ] ] ] ] ] ] ] ] ] ] ] ] ] ] ] ] ] ] ] ] { : ( ( < < ( [ } ~ ~ ! ! ! - . ",
". - ! ! ! ~ ~ ~ ~ ~ ~ ~ { { { { ] ] ] ] ] ] | 1 2 3 4 { ] ] ] ] ] ] ] ] ] ] ] ] ] ] ] ] ] ] ] ] ^ ( 2 2 5 5 6 7 [ ! ~ ~ ! ! - . ",
". - ! ! ~ ~ ~ ~ ~ ~ ~ { { { ] ] ] ] ] ] ] 8 ( 9 0 2 a { ] ] ] ] ] ] ] ] ] ] ] ] ] ] ] ] ] ] ] ] ^ ( 2 b c c b d ( ! ~ ~ ~ ! - . ",
". - ! ~ ~ ~ ~ ~ ~ ~ { { { ] ] ] ] ] ] ] { ( 2 b 9 ( e ] ] ] ] ] ] ] ] ] ] ] ] ] ] ] ] ] ] ] ] ] ] _ f g b h i j < ~ ~ ~ ~ ~ - . ",
". - ~ ~ ~ ~ ~ ~ ~ { { { ] ] ] ] ] ] ] ] ~ k l l k | ] ] ] ] ] ] ] ] ] ] ] ] ] ] ] ] ] ] ] ] ] ] ] ] | 1 2 2 j ! ~ ~ ~ ~ ~ ~ - . ",
". ; ~ ~ ~ ~ ~ ~ ! ! { ] ] ] ] ] ] ] ] ] ~ m l l n ] ] ] ] o o o o o o p ] ] ] ] ] ] ] ] ] ] ] ] ] ] ] _ ( ( _ { { ~ ~ ~ ~ ~ ; . ",
". ; ~ ~ ~ ~ ~ : ( ( _ ] ] ] ] ] ] ] ] ] { ( q q ( ] o o o o o o o o o o o o o ] ] ] ] ] ] ] ] ] ] ] ] ] ^ ^ ] { { { ~ ~ ~ ~ ; . ",
". ; ~ ~ ~ ~ ! ( 2 2 f | ] ] ] ] ] ] ] ] ] r a a s o o o o o o o o o o o o o o o o o ] ] ] ] ] ] ] ] ] ] ] ] ] ] { { { ~ ~ ~ ; . ",
". ; ~ ~ ~ { ! ( 2 t 9 1 8 ] ] ] ] ] ] ] ] ] p ] o o o o o o o o o o o o o o o o o o o ] ] ] ] ] ] ] ] ] ] ] ] ] { { { { ~ ~ ; . ",
". ; ~ ~ { { { _ j g b 2 ( { ] ] ] ] ] ] ] p o o o o o o o o o o o o o o o o o o o o o o o ] ] ] ] ] ] ] ] ] ] ] ] { { { ~ ~ ; . ",
". ; ~ ~ { { { ] ~ u v v k ~ ] ] ] ] ] e a a r o o o o o o o o o o o o o o o o o o o o o o o ] ] ] ] ] ] ] ] ] ] ] ] { { { ~ ; . ",
". ; ~ { { { ] ] { w v v k ~ ] ] ] ] ] ( q q a p o o o o o o o o o o o o o o o o o o o o o o o ] ] ] ] ] ] ] ] ] ] ] ] { { { ; . ",
". ; ~ { { ] ] ] { ( 3 3 ( { ] ] ] e x y z q A p o o o o o o o o o o o o o o o o o o o o o o o o ] ] ] ] ] ] ] ] ] ] ] { { { ; . ",
". ; { { { ] ] ] ] _ a a r ] ] ] ] 4 q B y x e o o o o o o o o o o o o o o o p p o o p p o o o o o ] ] ] ] ] ] ] ] ] ] ] { { > . ",
". ; { { ] ] ] ] ] ] { { ] ] ] o ~ m l l m ] o o o o o o o o o o o o o o o e A A e e A a 8 o o o o o ] ] ] ] ] ] ] ] ] ] { { , # ",
". , { { ] ] ] ] ] ] ] ] ] ] o o C m l l D p o o o o o o o o o o o o o o p E F G ( ( G q a p o o o o p ] ] ] ] ] ] ] ] ] ] { , # ",
"# , { { ] ] ] ] ] ] ] ] ] ] o o ] a q q a p o o o o o o o o o o o o o o p E G H 9 9 z q A p o o o o o ] ] ] ] ] ] ] ] ] ] { , # ",
"# , { ] ] ] ] ] ] ] ] ] ] o o o o e A A e o o o o o o o o o o o o o o o o ! x I 0 0 J x e o o o o o o o ] ] ] ] ] ] ] ] ] ] , # ",
"# , { ] ] ] ] ] ] ] ] ] ] o o o o o p p o o o o o o o o o o o o o o o o o o ] x G q x ] o o o o o o o o ] ] ] ] ] ] ] ] ] ] , # ",
"# , { ] ] ] ] ] ] ] ] ] o o o o o o o o o o o o o o o o o o o o o o o o o o o ! E E ! o o o o o o o o o ] ] ] ] ] ] ] ] ] ] , # ",
"# , ] ] ] ] ] ] ] ] ] ] o o o o o o o o o o o o o o o o o o o o o o o o o o o o p p o o o o o o o o o o o ] ] ] ] ] ] ] ] ] , # ",
"# , ] ] ] ] ] ] ] ] ] ] o o o o o o o o o o o o o o o o o o o o o o o o o o o o o o o o o o o o o o o o o ] ] ] ] ] ] ] ] ] , # ",
"# , ] ] ] ] ] ] ] ] ] o o o o o o o o o o o o o o o o o o o o o o o o o o o o o o o o o o o o o o o o o o ] ] ] ] ] ] ] ] ] , # ",
"# , ] ] ] ] ] ] ] ] ] o o o o o o o o o o o o o o o o o o o o o o o o o o o o o o o o o o o o o o o o o o o ] ] ] ] ] ] ] ] , # ",
"# , ] ] ] ] ] ] ] ] ] o o o o o o o o o o o o o o o o o o o o o o o o o o o o o o o o o o o o o o o o o o o ] ] ] ] ] ] ] ] , # ",
"# , ] ] ] ] ] ] ] ] ] o o o o o o o o o o o o o o o o o o o o o o o o o o o o o o o o o o o o o o o o o o o ] ] ] ] ] ] ] ] , # ",
"# , ] ] ] ] ] ] ] ] ] o o o o o o o o o o o o o o o o o o o o o o o o o o o o o o o o o o o o o o o o o o o ] ] ] ] ] ] ] ] , # ",
"# , ] ] ] ] ] ] ] ] ] o o o o o o o o o o o o o o o o o o o o o o o o o o o o o o o o o o o o o o o o o o o ] ] ] ] ] ] ] ] , # ",
"# , ] ] ] ] ] ] ] ] ] o o o o o o o o o o o o o o o o o o o o o o o o o o o o o o o o o o o o o o o o o o o ] ] ] ] ] ] ] ] , # ",
"# , ] ] ] ] ] ] ] ] ] o o o o o o o o o o o o o o o o o o o o o o o o o o o o o o o o o o o o o o o o o o o ] ] ] ] ] ] ] ] , # ",
"# , ] ] ] ] ] ] ] ] ] o o o o o o o o o o o o o o o o o o o o o o o o o o o o o o o o o o o o o o o o o o p ] ] ] ] ] { ] ] , # ",
"# , ] ] ] ] ] ] ] ] ] o o o o o o o o o o o o o o o o o o o o o o o o o o o o o o o o o o o o o o o o o o o - - ] ] o o ] ] , # ",
"# , ] ] ] ] ] ] ] ] ] ] o o o o o o o o o o o o o o o o o o o o o o o o o o o o o o o o o o o o o o o o o K L M N N M M N ] > # ",
"# , ] ] ] ] ] ] ] ] ] ] o o o o o o o o o o o o o o o o o o o o o o o o o o o o o o o o o o o o o o o p - L O P Q Q P O M o - # ",
"# , { ] ] ] ] ] ] ] ] ] o o p p o o o o o o o o o o o o o o o o o o o o o o o o o o o o o o o o o o o p - L O R S S R P M o - # ",
"# , { ] ] ] ] ] ] ] ] ] ] o - - o o o o o o o o o o o o o o o o o o o o o o o o o o o o o o o o o o o o ] T L U V V U M W ] > # ",
"# , { ] ] ] ] ] ] ] ] ] ] N L Q K o o o o o o o o o o o o o o o o o o o o o o o o o o o o o o o o o o o ] ] o M O O M o ] { , # ",
"# , { { ] ] ] ] ] ] ] ] o L X X Q - p o o o o o o o o o o o o o o o o o o o o o o o o o o o o o o o o ] ] ] ] W M M W ] { { , # ",
". > { { ] ] { { ] ] ] T M U V X L - p o o o o o o o o o o o o o o o o o o o o o o o o o o o o o o o ] ] ] ] ] ] o o ] ] ] { , # ",
". ; { { { ] o o ] ] o M Y Z S L N o o o o o o o o o o o o o o o o o o o o o o o o o o o o o o o o o ] ] ] ] ] ] { { ] ] { { , # ",
". ; { { { T M M W | * `  ...+.; ] o o o o o o o o o o o o o o o o o o o o o o o o o o o o o o o o ] ] ] ] ] ] ] ] ] ] ] { { > . ",
". ; ~ ~ o M O P M o o @.#.$.%.o | o o o o o o o o o o o o o o o o o o o o o o o o o o o o o o o ] ] ] ] ] ] ] ] ] ] ] { { { ; . ",
". ; ~ ~ o M P R &.*.=.+.-.;.@.- { ] o o p p o o o o o o o o o o o o o o o o o o o o o o o o o ] ] ] ] ] ] ] ] ] ] ] { { { ~ ; . ",
". ; ~ ~ { W M U >.O Q ` ,...` - { ] ] o - - o o o o o o o o o o o o o o o o o o o o o o o o ] ] ] ] ] ] ] ] ] ] ] ] { { { ~ ; . ",
". ; ~ ~ ~ ~ '.%.).,.` Q P !.M ~.] ] ] K L L N o o o o o o o o o o o o o o o o o p p o o ] ] ] ] ] ] ] ] ] ] ] ] ] { { { ~ ~ ; . ",
". ; ~ ~ ~ ) C %. . .+.{.].^.N ] ] ] - L X O L '.o o o o o o o o o o o o o o o o - - o * - - ] ] ] ] ] ] ] ] ] ] { { { ~ ~ ~ ; . ",
". ; ~ ~ ~ ! o %.-.-.%.o ] o ] ] ] ] - L O V U M T o o o o o o o o o o o o o o K L M K K M L K ] ] ] ] ] ] ] ] { { { { ~ ~ ~ ; . ",
". ; ~ ~ ~ ! p /...../.p ! { ] ] ] ] ] T L (.Z Y L - ] o o o o o o o o o o ] - L X P _._.P O M o { ] ] ] ] ] { { { { ~ ~ ~ ~ ; . ",
". - ~ ~ ~ ! p ^.O O M o { ] ] ] ] ] ] ] - +... .%.- { ] ] ] ] p o ] ] ] ] ] - L O R S S R O M o { ] ] ] ] ] { { { ~ ~ ~ ~ ~ ; . ",
". - ~ ~ ~ ~ ~ T *.*.T { { ] ] ] ] ] ] | * %. .#.@.- { ] ] ] ] ] ] ] ] ] ] ] ] T L U >.>.U M W ] ] ] ] ] { { { { ~ ~ ~ ~ ~ ~ - . ",
". - ! ~ ~ ~ ~ ~ p p { { { ] ] ] ] ] ] { o @.-.-.@.:.{ ] ] ] ] ] ] ] ] ] ] ] ] ] o M O O M o ] ] ] ] ] { { { { ~ ~ ~ ~ ~ ~ ! - . ",
". - ! ! ~ ~ ~ ~ ! ! ~ { { { { ] ] ] ] { o ` ....` o { ] ] ] ] ] ] ] ] ] ] ] ] ] ] W M M W ] ] ] ] ] { { { { ~ ~ ~ ~ ~ ~ ~ ! - . ",
". - ! ! ! ~ ~ ~ ~ ~ ~ ~ { { { { ] ] ] { o M !.!.M o { ] ] ] ] ] ] ] ] ] ] ] ] ] ] ] o o ] ] ] ] ] { { { { ~ ~ ~ ~ ~ ~ ~ ! ! - . ",
". - ! ! ! ! ~ ~ ~ ~ ~ ~ ~ { { { { { ] ] ] N *.*.N ] ] ] ] ] ] ] ] ] ] ] ] ] ] ] ] ] { { ] ] ] { { { { ~ ~ ~ ~ ~ ~ ~ ~ ! ! ! - . ",
". - ! ! ! ! ! ~ ~ ~ ~ ~ ~ ~ ~ { { { { ] ] ] o o ] ] ] ] ] ] ] ] ] ] ] ] ] ] ] ] ] ] ] ] ] { { { { { ~ ~ ~ ~ ~ ~ ~ ~ ! ! ! ! - . ",
"@ = ! ! ! ! ! ! ~ ~ ~ ~ ~ ~ ~ ~ { { { { { { { { ] ] ] ] ] ] ] ] ] ] ] ] ] ] ] ] ] ] ] { { { { { { ~ ~ ~ ~ ~ ~ ~ ~ ! ! ! ! ! = $ ",
"+ * ) ! ! ! ! ! ! ~ ~ ~ ~ ~ ~ ~ ~ ~ { { { { { { ] ] ] ] ] ] ] ] ] ] ] ] ] ] ] ] { { { { { { { ~ ~ ~ ~ ~ ~ ~ ~ ! ! ! ! ! ! ) * + ",
". & * = - - - - - - - ; ; ; ; ; ; ; ; ; , , , , , , , , , , , , , , , , , , , , , , , , , ; ; ; ; ; ; ; ; ; - - - - - - = * ' . ",
"  . + @ . . . . . . . . . . . . . . . . . # # # # # # # # # # # # # # # # # # # # # # # . . . . . . . . . . . . . . . . $ + .   "};
