/* XPM */
static char * label_xpm[] = {
"192 64 9 1",
" 	c #E9AE7C",
".	c #C68353",
"+	c #9C5E32",
"@	c #FFD1AB",
"#	c #793F19",
"$	c #A45B36",
"%	c #A9714F",
"&	c #C28A67",
"*	c #E8B997",
"                                                                                                                                                                                                ",
"                                                                                                                                                                                                ",
"                                                                                                                                                                                                ",
"    ..               +++++..........        ++...                                                                                               +++..        ++...                         ..   ",
"    ..               +++++..........        ++...                                                                                               +++..        ++...                         ..   ",
" ...++...                                                                                                                                                                               ...++...",
"    ..                                                                                                                                                                                     ..   ",
"    ..                                                                                                                                                                                     ..   ",
"                             @@@@@@@@@@@@                         @@@@@               @@@@@@@@@@                              @@@@@@                              @@     @@@@@                  ",
"                             @@@@@@@@@@@@                         @@@@@               @@@@@@@@@@                              @@@@@@                              @@     @@@@@                  ",
"#############################............#########################.....###############..........##############################......##############################..#####.....##################",
"................................................................................................................................................................................................",
"................................................................................................................................................................................................",
"$$$$$$$$$$$$$$$$$$$$$$$$$$$$$$$$$$$$$$$$$$$$$$$$$$$$$$$$$$$$$$$$$$$$$$$$$$$$$$$$$$$$$$$$$$$$$$$$$$$$$$$$$$$$$$$$$$$$$$$$$$$$$$$$$$$$$$$$$$$$$$$$$$$$$$$$$$$$$$$$$$$$$$$$$$$$$$$$$$$$$$$$$$$$$$$$",
"$$$$$$$$$$$$$$$$$$$$$$$$$$$$$$$$$$$$$$$$$$$$$$$$$$$$$$$$$$$$$$$$$$$$$$$$$$$$$$$$$$$$$$$$$$$$$$$$$$$$$$$$$$$$$$$$$$$$$$$$$$$$$$$$$$$$$$$$$$$$$$$$$$$$$$$$$$$$$$$$$$$$$$$$$$$$$$$$$$$$$$$$$$$$$$$$",
"################################################################################################################################################################################################",
"           $$$##%%%%%%%%%%%%%%%%%%%%%%%%%%%%%%%%%%%%%%%%%%%%%%%%%%%%%%%%%%%%%%%%%%%%%%%%%%%%%%%%%%%%%%%%%%%%%%%%%%%%%%%%%%%%%%%%%%%%%%%%%%%%%%%%%%%%%%%%%%%%%%%%%%%%%%%%%%%%%%%%%##$$$          ",
"           $$$##%%%%%%%%%%%%%%%%%%%%%%%%%%%%%%%%%%%%%%%%%%%%%%%%%%%%%%%%%%%%%%%%%%%%%%%%%%%%%%%%%%%%%%%%%%%%%%%%%%%%%%%%%%%%%%%%%%%%%%%%%%%%%%%%%%%%%%%%%%%%%%%%%%%%%%%%%%%%%%%%%##$$$          ",
"           $$$##%%%%%&&&&&&&&&&&&&&&&&&&&&&&&&&&&&&&&&&&&&&&&&&&&&&&&&&&&&&&&&&&&&&&&&&&&&&&&&&&&&&&&&&&&&&&&&&&&&&&&&&&&&&&&&&&&&&&&&&&&&&&&&&&&&&&&&&&&&&&&&&&&&&&&&&&&&&&%%%%%##$$$          ",
"           $$$##%%%&&&&&*************************************************************************************************************************************************&&&&&%%%##$$$          ",
"           $$$##%%%&&&&&*************************************************************************************************************************************************&&&&&%%%##$$$          ",
"           $$$##%%%&&*******************************************************************************************************************************************************&&%%%##$$$++        ",
"           $$$##%%%&&*******************************************************************************************************************************************************&&%%%##$$$++        ",
"           $$$##%%%&&*******************************************************************************************************************************************************&&%%%##$$$++        ",
" +++       $$$##%%%&&*******************************************************************************************************************************************************&&%%%##$$$..        ",
" +++       $$$##%%%&&*******************************************************************************************************************************************************&&%%%##$$$..        ",
" ...       $$$##%%%&&*******************************************************************************************************************************************************&&%%%##$$$..        ",
" ...       $$$##%%%&&*******************************************************************************************************************************************************&&%%%##$$$..        ",
" ...       $$$##%%%&&*******************************************************************************************************************************************************&&%%%##$$$          ",
" ...       $$$##%%%&&*******************************************************************************************************************************************************&&%%%##$$$          ",
" ...       $$$##%%%&&*******************************************************************************************************************************************************&&%%%##$$$          ",
"           $$$##%%%&&*******************************************************************************************************************************************************&&%%%##$$$++        ",
"           $$$##%%%&&*******************************************************************************************************************************************************&&%%%##$$$++        ",
"           $$$##%%%&&*******************************************************************************************************************************************************&&%%%##$$$++        ",
"           $$$##%%%&&*******************************************************************************************************************************************************&&%%%##$$$..        ",
".          $$$##%%%&&*******************************************************************************************************************************************************&&%%%##$$$          ",
".          $$$##%%%&&*******************************************************************************************************************************************************&&%%%##$$$          ",
"           $$$##%%%&&*******************************************************************************************************************************************************&&%%%##$$$       +++",
"           $$$##%%%&&*******************************************************************************************************************************************************&&%%%##$$$       +++",
"           $$$##%%%&&*******************************************************************************************************************************************************&&%%%##$$$       +++",
"+          $$$##%%%&&*******************************************************************************************************************************************************&&%%%##$$$       +++",
"+          $$$##%%%&&*******************************************************************************************************************************************************&&%%%##$$$       +++",
".          $$$##%%%&&*******************************************************************************************************************************************************&&%%%##$$$       ...",
"           $$$##%%%&&*******************************************************************************************************************************************************&&%%%##$$$       ...",
"           $$$##%%%&&*******************************************************************************************************************************************************&&%%%##$$$       ...",
"           $$$##%%%&&*******************************************************************************************************************************************************&&%%%##$$$          ",
"           $$$##%%%&&*******************************************************************************************************************************************************&&%%%##$$$          ",
"           $$$##%%%&&*******************************************************************************************************************************************************&&%%%##$$$       ...",
"           $$$##%%%&&&&&*************************************************************************************************************************************************&&&&&%%%##$$$          ",
"           $$$##%%%&&&&&*************************************************************************************************************************************************&&&&&%%%##$$$          ",
"           $$$##%%%%%&&&&&&&&&&&&&&&&&&&&&&&&&&&&&&&&&&&&&&&&&&&&&&&&&&&&&&&&&&&&&&&&&&&&&&&&&&&&&&&&&&&&&&&&&&&&&&&&&&&&&&&&&&&&&&&&&&&&&&&&&&&&&&&&&&&&&&&&&&&&&&&&&&&&&&&%%%%%##$$$          ",
"           $$$##%%%%%%%%%%%%%%%%%%%%%%%%%%%%%%%%%%%%%%%%%%%%%%%%%%%%%%%%%%%%%%%%%%%%%%%%%%%%%%%%%%%%%%%%%%%%%%%%%%%%%%%%%%%%%%%%%%%%%%%%%%%%%%%%%%%%%%%%%%%%%%%%%%%%%%%%%%%%%%%%%##$$$          ",
"           $$$##%%%%%%%%%%%%%%%%%%%%%%%%%%%%%%%%%%%%%%%%%%%%%%%%%%%%%%%%%%%%%%%%%%%%%%%%%%%%%%%%%%%%%%%%%%%%%%%%%%%%%%%%%%%%%%%%%%%%%%%%%%%%%%%%%%%%%%%%%%%%%%%%%%%%%%%%%%%%%%%%%##$$$          ",
"################################################################################################################################################################################################",
"################################################################################################################################################################################################",
"@@@@@@@@@@@@@@@@@@@@@@@@@@@@@@@@@@@@@@@@@@@@@@@@@@@@@@@@@@@@@@@@@@@@@@@@@@@@@@@@@@@@@@@@@@@@@@@@@@@@@@@@@@@@@@@@@@@@@@@@@@@@@@@@@@@@@@@@@@@@@@@@@@@@@@@@@@@@@@@@@@@@@@@@@@@@@@@@@@@@@@@@@@@@@@@@",
"    ..                                                                                                                                                                                     ..   ",
"    ..                                                                                                                                                                                     ..   ",
" ...++...                                                                                                                                                                               ...++...",
" ...++...                                                                                                                                                                               ...++...",
"    ..                                                                                                                                             ++.....          +++..                  ..   ",
"                             +++++..........       +++..                                                                                                                                        ",
"                             +++++..........       +++..                                                                                                                                        ",
"                                                                                                                                                                                                "};
