/* XPM */
static char * plyerR1_xpm[] = {
"64 64 12 1",
" 	c #C0D470",
".	c #A4C263",
"+	c #213038",
"@	c #437DA0",
"#	c #4D92BC",
"$	c #9A2890",
"%	c #FFFFFF",
"&	c #D8B78F",
"*	c #FFD7A8",
"=	c #E8EEAA",
"-	c #8E9C52",
";	c #ABB07D",
"                                                                ",
"                                                                ",
"                                                                ",
"                                                                ",
"                                                                ",
"                                                                ",
"                        ..                        ..  ..        ",
"                        ..                        ..  ..        ",
"                      ..                            ..          ",
"                      ..                            ..          ",
"                   +++++++++++++++++++++++++++++                ",
"                   +++++++++++++++++++++++++++++                ",
"        ..      +++++@@@@@@@@+++################+++             ",
"        ..      +++++@@@@@@@@+++################+++             ",
"          ..    +++++@@@@@@@@+++################+++             ",
"          .. +++$$$++@@@%%%++%%%@@@################++           ",
"          .. +++$$$++@@@%%%++%%%@@@################++           ",
"          .. +++$$$++@@@%%%++%%%@@@################++           ",
"             +++$$$++@@@%%%++%%%@@@##+++########+++++           ",
"             +++$$$++@@@%%%++%%%@@@##+++########+++++           ",
"             ++++++++@@@%%%++%%%@@@################++           ",
"             ++++++++@@@%%%++%%%@@@################++           ",
"             ++++++++@@@%%%++%%%@@@################++           ",
"                +++$$+++@@@@@@@@@@@################++           ",
"                +++$$+++@@@@@@@@@@@################++           ",
"                +++$$+++@@@@@@@@@@@################++           ",
"                +++$$+++@@@@@@@@@@@################++           ",
"                +++$$+++@@@@@@@@@@@################++           ",
"                ++++++++@@@@@@@@@@@@@###+++++++++++++           ",
"                ++++++++@@@@@@@@@@@@@###+++++++++++++           ",
"                ++++++++@@@@@@@@@@@@@###+++++++++++++           ",
"                     ++++++@@@@@###########++                   ",
"                     ++++++@@@@@###########++                   ",
"                     ++++++@@@@@###########++                   ",
"                        +++@@&&&***********++                   ",
"                        +++@@&&&***********++                   ",
"                   ++++++++@@&&&***********++                   ",
"                   ++++++++@@&&&***********++                   ",
"                   ++++++++@@&&&***********++         ==  ==    ",
"                   ++######@@&&&***********++         ==  ==    ",
"                   ++######@@&&&***********++           ==      ",
"                   ++######@@&&&***********++           ==      ",
"              ==   +++++@@@@@@@@+++&&&&&###++                   ",
"              ==   +++++@@@@@@@@+++&&&&&###++                   ",
"            ==       ++++++@@######++######++                   ",
"            ==       ++++++@@######++######++                   ",
"      ==    ==       ++++++@@######++######++                   ",
"      ==    ==        -----++@@@###++++++++                     ",
"        ==  ==-------------++@@@###++++++++--------             ",
"        ==  ==-------------++@@@###++++++++--------             ",
"        == ---------;;-------+++++++++++-------------           ",
"        == ---------;;-------+++++++++++-------------           ",
"        == -----------;;----------------;;--;;-------           ",
"        ==    --------;;----------------;;--;;-----             ",
"              --------;;------------------;;-------             ",
"              --------;;------------------;;-------             ",
"                      ;;-------------------                     ",
"                      ;;-------------------                     ",
"                                                                ",
"                                                                ",
"                                                                ",
"                                                                ",
"                                                                ",
"                                                                "};
