/* XPM */
static char * trap_closed_xpm[] = {
"64 64 3 1",
" 	c #584563",
".	c #8C8FAE",
"+	c #3E2137",
"   .............................................................",
"   .............................................................",
"   .............................................................",
"   ++++++++++++++++++++++++++++++++++++++++++++++++++++++++++...",
"   ++++++++++++++++++++++++++++++++++++++++++++++++++++++++++...",
"   ++++++++++++++++++++++++++++++++++++++++++++++++++++++++++...",
"   +++....................................................+++...",
"   +++....................................................+++...",
"   +++....................................................+++...",
"   +++....................................................+++...",
"   +++....................................................+++...",
"   +++....................................................+++...",
"   +++...........++++++++++...............................+++...",
"   +++...........++++++++++...............................+++...",
"   +++...........++++++++++...............................+++...",
"   +++...........++++++++++...............................+++...",
"   +++...........++++++++++...............................+++...",
"   +++...........++++++++++...............................+++...",
"   +++...........++++++++++...............................+++...",
"   +++...........++++++++++...............................+++...",
"   +++...........  ++++++.................................+++...",
"   +++............ ++++++.................................+++...",
"   +++............ ++++++ ................................+++...",
"   +++............  ++++++................................+++...",
"   +++............. ++++++................................+++...",
"   +++............. ++++++ ...............................+++...",
"   +++.............  ++++++...............................+++...",
"   +++.............  ++++++...............................+++...",
"   +++.............  ++++++...............................+++...",
"   +++.............  ++++++...............................+++...",
"   +++.............  ++++++...............................+++...",
"   +++.............  ++++++...............................+++...",
"   +++.............  ++++++...............................+++...",
"   +++.............  ++++++...............................+++...",
"   +++.............  ++++++...............................+++...",
"   +++.............  ++++++...............................+++...",
"   +++.............  ++++++...............................+++...",
"   +++.............  ++++++...............................+++...",
"   +++............. ++++++ ...............................+++...",
"   +++............. ++++++................................+++...",
"   +++............  ++++++................................+++...",
"   +++............ ++++++ ................................+++...",
"   +++............ ++++++.................................+++...",
"   +++...........  ++++++.................................+++...",
"   +++...........++++++++++...............................+++...",
"   +++...........++++++++++...............................+++...",
"   +++...........++++++++++...............................+++...",
"   +++...........++++++++++...............................+++...",
"   +++...........++++++++++...............................+++...",
"   +++...........++++++++++...............................+++...",
"   +++...........++++++++++...............................+++...",
"   +++...........++++++++++...............................+++...",
"   +++....................................................+++...",
"   +++....................................................+++...",
"   +++....................................................+++...",
"   +++....................................................+++...",
"   +++....................................................+++...",
"   +++....................................................+++...",
"   ++++++++++++++++++++++++++++++++++++++++++++++++++++++++++...",
"   ++++++++++++++++++++++++++++++++++++++++++++++++++++++++++...",
"   ++++++++++++++++++++++++++++++++++++++++++++++++++++++++++...",
"                                                                ",
"                                                                ",
"                                                                "};
