/* XPM */
static char * E3_xpm[] = {
"64 64 10 1",
" 	c #C0D470",
".	c #8E9D58",
"+	c #222034",
"@	c #FFFFFF",
"#	c #242334",
"$	c #A4C263",
"%	c #7A9050",
"&	c #7A8F50",
"*	c #E8EEAA",
"=	c #ACB081",
"              ..  ++++++  ..  @@@@                              ",
"              ..  ++++++  ..  @@@@                              ",
"                  ++++++  ..  @@@@  ##++++      ##              ",
"                  ++++++  ..  @@@@  ##++++      ##              ",
"            ++    ++++++      @@@@  ##++++  ##                  ",
"            ++    ++++++      @@@@  ##++++  ##                  ",
"                        $$....@@@@                %%  $$        ",
"                        $$....@@@@                %%  $$        ",
"                  ..  ++  ....@@@@@@@@  ....  ##    $$          ",
"                  ..  ++  ....@@@@@@@@  ....  ##    $$          ",
"            ++++      $$      @@@@@@@@  ....                    ",
"            ++++      $$      @@@@@@@@  ....                    ",
"      ..$$  ++++  ++++  ++++  @@@@            ##  ++++    ++    ",
"      ..$$  ++++  ++++  ++++  @@@@            ##  ++++    ++    ",
"  ##      $$      ++++  ++++  @@@@  ##++          ++++        ..",
"  ##      $$      ++++  ++++  @@@@  ##++          ++++        ..",
"        ##$$##      $$  ++++  @@@@  ##++  ##++                  ",
"        ##$$##      $$  ++++  @@@@  ##++  ##++                  ",
"    ##          ++++          @@@@  ##++  ++++  ++++  ..  ++++++",
"    ##          ++++          @@@@  ##++  ++++  ++++  ..  ++++++",
"        ....    ##++  ..  @@@@@@@@    $$  $$    ++++      ++++++",
"        ....    ##++  ..  @@@@@@@@    $$  $$    ++++      ++++++",
"  ++++  ....          ..  @@@@@@@@....  &&..          ++  ++++++",
"  ++++  ....          ..  @@@@@@@@....  &&..          ++  ++++++",
"  ++++        ++++++          @@@@....        ++++++            ",
"  ++++        ++++++          @@@@....        ++++++            ",
"  ####  @@@@  ######  ....  ..@@@@      @@@@  ++++++  ....  ....",
"  ####  @@@@  ######  ....  ..@@@@      @@@@  ++++++  ....  ....",
"        @@@@          ....    @@@@  ..  @@@@          ....      ",
"        @@@@          ....    @@@@  ..  @@@@          ....      ",
"@@@@@@@@@@@@@@@@@@@@@@@@@@@@@@@@@@@@@@@@@@@@@@@@@@@@@@@@@@@@@@@@",
"@@@@@@@@@@@@@@@@@@@@@@@@@@@@@@@@@@@@@@@@@@@@@@@@@@@@@@@@@@@@@@@@",
"@@@@@@@@@@@@@@@@@@@@@@@@@@@@@@@@@@@@@@@@@@@@@@@@@@@@@@@@@@@@@@@@",
"@@@@@@@@@@@@@@@@@@@@@@@@@@@@@@@@@@@@@@@@@@@@@@@@@@@@@@@@@@@@@@@@",
"      ....          @@@@  ..  @@@@    ....          @@@@        ",
"      ....          @@@@  ..  @@@@    ....          @@@@        ",
"....  ....  ++++++  @@@@      @@@@..  ....  ######  @@@@  ####  ",
"....  ....  ++++++  @@@@      @@@@..  ....  ######  @@@@  ####  ",
"            ++++++        ....@@@@          ++++++    **  ++++  ",
"            ++++++        ....@@@@          ++++++    **  ++++  ",
"++++++  ++          ....  ....@@@@@@@@  ..          ....**++++  ",
"++++++  ++          ....  ....@@@@@@@@  ..          ....**++++  ",
"++++++      ++++              @@@@@@@@  ..  ++##    ....        ",
"++++++      ++++              @@@@@@@@  ..  ++##    ....        ",
"++++++  ..  ++++  ++++  ++##  @@@@          ++++          ##    ",
"++++++  ..  ++++  ++++  ++##  @@@@          ++++          ##    ",
"      **    **    ++##  ++##  @@@@  ++++          ##  ##        ",
"      **    **    ++##  ++##  @@@@  ++++          ##  ##        ",
"..      **++++          ++##  @@@@  ++++  ++++              ##  ",
"..      **++++          ++##  @@@@  ++++  ++++              ##  ",
"    ++  **++++  ##  **        @@@@  ++++  ++++  ++++    ..      ",
"    ++  **++++  ##  **        @@@@  ++++  ++++  ++++    ..      ",
"        **          ..==  @@@@@@@@      **  **  ++++            ",
"        **          ..==  @@@@@@@@      **  **  ++++            ",
"                ##  ..==  @@@@@@@@....  ++**..                  ",
"                ##  ..==  @@@@@@@@....  ++**..                  ",
"            ..        **      @@@@....                          ",
"            ..        **      @@@@....                          ",
"                  ##  ++++##  @@@@      ++++++    ++            ",
"                  ##  ++++##  @@@@      ++++++    ++            ",
"              ##      ++++##  @@@@  ..  ++++++                  ",
"              ##      ++++##  @@@@  ..  ++++++                  ",
"                              @@@@  ..  ++++++  ..              ",
"                              @@@@  ..  ++++++  ..              "};
