/* XPM */
static char * E4_xpm[] = {
"64 64 10 1",
" 	c #C0D470",
".	c #FFFFFF",
"+	c #222034",
"@	c #242334",
"#	c #A4C263",
"$	c #7A9050",
"%	c #8E9D58",
"&	c #E8EEAA",
"*	c #262435",
"=	c #ACB081",
"                                ..                              ",
"                                ..                              ",
"                                ..  ++++@@      @@              ",
"                                ..  ++++@@      @@              ",
"                                ..  ++++@@  @@                  ",
"                                ..  ++++@@  @@                  ",
"                        ##      ..                $$  ##        ",
"                        ##      ..                $$  ##        ",
"                      ##        ......  %%%%  @@    ##          ",
"                      ##        ......  %%%%  @@    ##          ",
"                      ##        ......  %%%%                    ",
"                      ##        ......  %%%%                    ",
"      %%##  ++            ++    ..            @@  @@            ",
"      %%##  ++            ++    ..            @@  @@            ",
"  ++      ##    %%  ++        %%..  ++@@                        ",
"  ++      ##    %%  ++        %%..  ++@@                        ",
"        ++##++      ##          ..  ++@@  ++@@  %%              ",
"        ++##++      ##          ..  ++@@  ++@@  %%              ",
"    ++          ++++  %%  ++++++..  ++@@  ++@@                  ",
"    ++          ++++  %%  ++++++..  ++@@  ++@@                  ",
"        %%%%    ++++      ++++++..    ##  ##    @@              ",
"        %%%%    ++++      ++++++..    ##  ##    @@              ",
"  ++++  %%%%          ++  ++++++..%%%%  @@  %%                  ",
"  ++++  %%%%          ++  ++++++..%%%%  @@  %%                  ",
"  ++++        ++++++            ..%%%%                          ",
"  ++++        ++++++            ..%%%%                          ",
"  ++++  ....  ++++++  %%%%  %%%%..      ++++@@    @@            ",
"  ++++  ....  ++++++  %%%%  %%%%..      ++++@@    @@            ",
"        ....          %%%%      ..  %%  ++++@@                  ",
"        ....          %%%%      ..  %%  ++++@@                  ",
"..................................  %%  ++++@@  %%              ",
"..................................  %%  ++++@@  %%              ",
"              %%  ++++@@  %%  ..................................",
"              %%  ++++@@  %%  ..................................",
"                  ++++@@  %%  ..      %%%%          ....        ",
"                  ++++@@  %%  ..      %%%%          ....        ",
"            @@    ++++@@      ..%%%%  %%%%  ++++++  ....  ++++  ",
"            @@    ++++@@      ..%%%%  %%%%  ++++++  ....  ++++  ",
"                          %%%%..            ++++++    &&  ++++  ",
"                          %%%%..            ++++++    &&  ++++  ",
"                  %%  @@  %%%%..++++++  ++          %%%%&&++++  ",
"                  %%  @@  %%%%..++++++  ++          %%%%&&++++  ",
"              **              ..++++++      ++++    %%%%        ",
"              **              ..++++++      ++++    %%%%        ",
"            &&    ++@@  ++@@  ..++++++  %%  ++++          ++    ",
"            &&    ++@@  ++@@  ..++++++  %%  ++++          ++    ",
"      &&    &&%%  ++@@  ++@@  ..                  ++  ++        ",
"      &&    &&%%  ++@@  ++@@  ..                  ++  ++        ",
"        &&  &&          ++@@  ..%%        ++  %%            ++  ",
"        &&  &&          ++@@  ..%%        ++  %%            ++  ",
"        &&  @@  @@  &&        ..    ++            ++    %%      ",
"        &&  @@  @@  &&        ..    ++            ++    %%      ",
"        &&          %%==  ......        &&  &&                  ",
"        &&          %%==  ......        &&  &&                  ",
"                @@  %%==  ......          &&                    ",
"                @@  %%==  ......          &&                    ",
"            %%        &&      ..                                ",
"            %%        &&      ..                                ",
"                  @@  ++++@@  ..                                ",
"                  @@  ++++@@  ..                                ",
"              @@      ++++@@  ..                                ",
"              @@      ++++@@  ..                                ",
"                              ..                                ",
"                              ..                                "};
