/* XPM */
static char * E5_xpm[] = {
"64 64 10 1",
" 	c #C0D470",
".	c #A4C263",
"+	c #8E9D58",
"@	c #242334",
"#	c #222034",
"$	c #7A8F50",
"%	c #FFFFFF",
"&	c #272635",
"*	c #E8EEAA",
"=	c #8F9E59",
"                                                                ",
"                                                                ",
"                                                                ",
"                                                                ",
"                                                                ",
"                                                                ",
"                        ..                        ..  ..        ",
"                        ..                        ..  ..        ",
"                      ..                            ..          ",
"                      ..                            ..          ",
"                      ..                                        ",
"                      ..                                        ",
"        ..                                                      ",
"        ..                                                      ",
"          ..                ++      @@                          ",
"          ..                ++      @@                          ",
"          ..        ..##                                        ",
"          ..        ..##                                        ",
"                  ##        ####        ++  @@                  ",
"                  ##        ####        ++  @@                  ",
"                  ..  ++++  ####  ##@@..  ..                    ",
"                  ..  ++++  ####  ##@@..  ..                    ",
"                  ++  ++++        ##@@  $$++  @@                ",
"                  ++  ++++        ##@@  $$++  @@                ",
"                            ####  ##@@  ++++                    ",
"                            ####  ##@@  ++++                    ",
"              ##    ######  ####                                ",
"              ##    ######  ####                                ",
"                    ######          ##@@  ####  ++              ",
"                    ######          ##@@  ####  ++              ",
"                              %%%%  ##@@  ####                  ",
"                              %%%%  ##@@  ####                  ",
"                  ####  ####  %%%%                              ",
"                  ####  ####  %%%%                              ",
"              ++  ####  ####          ####@@                    ",
"              ++  ####  ####          ####@@                    ",
"                                ##@@  @@@@&&    &&              ",
"                                ##@@  @@@@&&    &&              ",
"                    ++++  ####  @@&&                  **  **    ",
"                    ++++  ####  @@&&                  **  **    ",
"                ##  ++++  ####        ++++  ==          **      ",
"                ##  ++++  ####        ++++  ==          **      ",
"              **          ####  ####  ++==                      ",
"              **          ####  ####  ++==                      ",
"            **    ##  ++        ####        &&                  ",
"            **    ##  ++        ####        &&                  ",
"      **    **                          &&                      ",
"      **    **                          &&                      ",
"        **  **            ##      ==                            ",
"        **  **            ##      ==                            ",
"        **          **                                          ",
"        **          **                                          ",
"        **            **                **  **                  ",
"        **            **                **  **                  ",
"                      **                  **                    ",
"                      **                  **                    ",
"                      **                                        ",
"                      **                                        ",
"                                                                ",
"                                                                ",
"                                                                ",
"                                                                ",
"                                                                ",
"                                                                "};
