/* XPM */
static char * food_xpm[] = {
"64 64 24 1",
" 	c #C0D470",
".	c #170625",
"+	c #A4C263",
"@	c #77271B",
"#	c #A43E0E",
"$	c #9A3C20",
"%	c #BA5125",
"&	c #E88D31",
"*	c #CF732D",
"=	c #C76429",
"-	c #E88D2F",
";	c #F3A940",
">	c #F3A83F",
",	c #E88C2F",
"'	c #F5CA5C",
")	c #F4A946",
"!	c #993B1E",
"~	c #A9BB65",
"{	c #F9C17B",
"]	c #C57F5D",
"^	c #E8EEAA",
"/	c #FFE18F",
"(	c #95A45B",
"_	c #CDD297",
"                                                                ",
"                                                                ",
"                                                                ",
"                                                                ",
"              ................                                  ",
"              ................                                  ",
"              ................                    ++  ++        ",
"              ................                    ++  ++        ",
"          ....@@@@####@@@@@@@@....                  ++          ",
"          ....@@@@####@@@@@@@@....                  ++          ",
"          ....@@@@####@@@@@@@@....                              ",
"          ....@@@@####@@@@@@@@....                              ",
"      ....$$$$%%%%&&&&****$$$$@@@@....                          ",
"      ....$$$$%%%%&&&&****$$$$@@@@....                          ",
"      ....$$$$%%%%&&&&****$$$$@@@@....                          ",
"      ....$$$$%%%%&&&&****$$$$@@@@....                          ",
"  ....@@@@%%%%****%%%%%%%%****%%%%....                          ",
"  ....@@@@%%%%****%%%%%%%%****%%%%....                          ",
"  ....@@@@%%%%****%%%%%%%%****%%%%....                          ",
"  ....@@@@%%%%****%%%%%%%%****%%%%....                          ",
"  ....$$$$====----====;;;;========$$$$....++                    ",
"  ....$$$$====----====;;;;========$$$$....++                    ",
"  ....$$$$====----====;;;;========$$$$....                      ",
"  ....$$$$====----====;;;;========$$$$....                      ",
"  ....%%%%****>>>>,,,,'''')))),,,,****....                      ",
"  ....%%%%****>>>>,,,,'''')))),,,,****....                      ",
"  ....%%%%****>>>>,,,,'''')))),,,,****....                      ",
"  ....%%%%****>>>>,,,,'''')))),,,,****....                      ",
"  ....!!!!====****%%%%,,,,;;;;====%%%%$$$$....                  ",
"  ....!!!!====****%%%%,,,,;;;;====%%%%$$$$....                  ",
"  ....!!!!====****%%%%,,,,;;;;====%%%%$$$$....                  ",
"  ....!!!!====****%%%%,,,,;;;;====%%%%$$$$....                  ",
"  ....@@@@%%%%%%%%====****,,,,****====@@@@....                  ",
"  ....@@@@%%%%%%%%====****,,,,****====@@@@....                  ",
"  ....@@@@%%%%%%%%====****,,,,****====@@@@....                  ",
"  ....@@@@%%%%%%%%====****,,,,****====@@@@....                  ",
"  ~~~~....@@@@$$$$$$$$%%%%========@@@@{{{{]]]]....              ",
"  ~~~~....@@@@$$$$$$$$%%%%========@@@@{{{{]]]]....              ",
"  ~~~~....@@@@$$$$$$$$%%%%========@@@@{{{{]]]]....    ^^  ^^    ",
"  ~~~~....@@@@$$$$$$$$%%%%========@@@@{{{{]]]]....    ^^  ^^    ",
"      ~~~~............$$$$$$$$%%%%$$$$]]]]{{{{]]]]........      ",
"      ~~~~............$$$$$$$$%%%%$$$$]]]]{{{{]]]]........      ",
"      ~~~~............$$$$$$$$%%%%$$$$]]]]{{{{]]]]........      ",
"      ~~~~............$$$$$$$$%%%%$$$$]]]]{{{{]]]]........      ",
"            ^^~~~~~~~~....................]]]]{{{{////{{{{....  ",
"            ^^~~~~~~~~....................]]]]{{{{////{{{{....  ",
"      ^^    ^^~~~~~~~~....................]]]]{{{{////{{{{....  ",
"      ^^    ^^~~~~~~~~....................]]]]{{{{////{{{{....  ",
"        ^^  ^^            ~~~~~~~~~~~~((((....////]]]]....      ",
"        ^^  ^^            ~~~~~~~~~~~~((((....////]]]]....      ",
"        ^^          ^^    ~~~~~~~~~~~~((((....////]]]]....      ",
"        ^^          ^^    ~~~~~~~~~~~~((((....////]]]]....      ",
"        ^^            ^^              ~~__....]]]]{{{{....~~~~  ",
"        ^^            ^^              ~~__....]]]]{{{{....~~~~  ",
"                      ^^              ~~~~....]]]]{{{{....~~~~  ",
"                      ^^              ~~~~....]]]]{{{{....~~~~  ",
"                      ^^                  ~~~~........~~~~      ",
"                      ^^                  ~~~~........~~~~      ",
"                                          ~~~~........~~~~      ",
"                                          ~~~~........~~~~      ",
"                                                                ",
"                                                                ",
"                                                                ",
"                                                                "};
