/* XPM */
static char * trap_open_xpm[] = {
"64 64 5 1",
" 	c #584563",
".	c #8C8FAE",
"+	c #3E2137",
"@	c #1F0E1C",
"#	c #351D30",
"   .............................................................",
"   .............................................................",
"   .............................................................",
"   ++++++++++++++++++++++++++++++++++++++++++++++++++++++++++...",
"   ++++++++++++++++++++++++++++++++++++++++++++++++++++++++++...",
"   ++++++++++++++++++++++++++++++++++++++++++++++++++++++++++...",
"   +++@@@@@@@@@@@@@@@########################.............+++...",
"   +++@@@@@@@@@@@@@@@########################.............+++...",
"   +++@@@@@@@@@@@@@@@########################.............+++...",
"   +++@@@@@@@@@@########++++++++++++++###++++.............+++...",
"   +++@@@@@@@@@@########++++++++++++++###++++.............+++...",
"   +++@@@@@@@@@@########++++++++++++++###++++.............+++...",
"   +++@@@@@@@@@@########++++++++++++++###++++.............+++...",
"   +++#############...................###++++.............+++...",
"   +++#############...................###++++.............+++...",
"   +++#############...................###++++.............+++...",
"   +++###++++###+++...................###++++.............+++...",
"   +++###++++###+++...................###++++.............+++...",
"   ++++++++++###+++...................###++++.............+++...",
"   +++.......###+++...................###++++.............+++...",
"   +++.......###+++...................###++++.............+++...",
"   +++.......###+++...................###++++.............+++...",
"   +++.......###+++...................###++++.............+++...",
"   +++.......###+++...................###++++.............+++...",
"   +++.......###+++...................###++++.............+++...",
"   +++.......###+++...................###++++.............+++...",
"   +++.......###+++...................###++++.............+++...",
"   +++.......###+++...................###++++.............+++...",
"   +++.......###+++...................###++++.............+++...",
"   +++.......###+++...................###++++.............+++...",
"   +++.......###+++...................###++++.............+++...",
"   +++.......###+++...................###++++.............+++...",
"   +++.......###+++...................###++++.............+++...",
"   +++.......###+++...................###++++.............+++...",
"   +++.......###+++...................###++++.............+++...",
"   +++.......###+++...................###++++.............+++...",
"   +++.......###+++...................###++++.............+++...",
"   +++.......###+++...................###++++.............+++...",
"   +++.......###+++...................###++++.............+++...",
"   +++.......###+++...................###++++.............+++...",
"   +++.......###+++...................###++++.............+++...",
"   +++.......###+++...................###++++.............+++...",
"   +++.......###+++...................#######             +++...",
"   +++.......###+++...................#######             +++...",
"   +++.......###+++...................#######             +++...",
"   +++.......###+++...................#######             +++...",
"   +++.......###+++...................#######             +++...",
"   +++.......###+++...................#######             +++...",
"   +++.......###+++...................#######             +++...",
"   +++.......######                   #######             +++...",
"   +++.......######                   #######             +++...",
"   +++.......######                   #######             +++...",
"   +++.......######                   #######             +++...",
"   +++.......######                   #######             +++...",
"   +++.......######                   #######             +++...",
"   +++       ######                   #######             +++...",
"   +++       ######                   #######             +++...",
"   +++       ######                   #######             +++...",
"   ++++++++++++++++++++++++++++++++++++++++++++++++++++++++++...",
"   ++++++++++++++++++++++++++++++++++++++++++++++++++++++++++...",
"   ++++++++++++++++++++++++++++++++++++++++++++++++++++++++++...",
"                                                                ",
"                                                                ",
"                                                                "};
