/* XPM */
static char * wall2_xpm[] = {
"64 64 10 1",
" 	c #C0D470",
".	c #0B5101",
"+	c #A4C263",
"@	c #163882",
"#	c #159D02",
"$	c #663100",
"%	c #F17013",
"&	c #8A4B0F",
"*	c #BC550B",
"=	c #622C0C",
"                                                                ",
"                                                                ",
"                                                                ",
"                                                                ",
"                 ..............           .........             ",
"                 ..............           .........             ",
"                 ..............           .........+  ++        ",
"               ..@@############...........########@.. ++        ",
"               ..@@############...........#########..+          ",
"            ...@@@@##################################...        ",
"            ...######################################...        ",
"            ...########@@@@##########################...        ",
"        ++  ...########@@@@##########################...        ",
"        ++  ...########@@@@##########################...        ",
"          ++.....######@@@@##########################...        ",
"          ++.....####################@@@@############...        ",
"          ++.....####################@@@@##########..           ",
"          ++.....####################@@@@##########..           ",
"            ........#########@@@@####@@@@##########..           ",
"        $$$$........#########@@@@####@@@@##########..$$$        ",
"        $$$$....@@@@#########@@@@##################..$$$        ",
"        $$$$....@@@@...######@@@@############........$$$        ",
"    $$$$%%%%....@@@@...####################@@@@......%%%$$$$    ",
"    $$$$%%%%....@@@@..............###...##.@@@@......%%%$$$$    ",
"    $$$$%%%%......................###...##.@@@@......%%%$$$$    ",
"&&&&%%%%*******............................@@@@......***%%%%&&&&",
"&&&&%%%%*******............................@@@@......***%%%%&&&&",
"&&&&%%%%*******.......@@@@...........................***%%%%&&&&",
"&&&&%%%%*******.......@@@@.........................*****%%%%&&&&",
"&&&&%%%%*******.......@@@@........@@@@@............*****%%%%&&&&",
"&&&&%%%%*********.....@@@@..******===@@............*****%%%%&&&&",
"&&&&&&&&*********...........******===@@............*****&&&&&&&&",
"&&&&&&&&*********...........******===@@............*****&&&&&&&&",
"&&&&&&&&************......===========*****......********&&&&&&&&",
"&&&&$$$$&&&&&&&&****......===========*****....@@&&&&&&&&$$$$&&&&",
"&&&&$$$$&&&&&&&&************======**************&&&&&&&&$$$$&&&&",
"&&&&$$$$&&&&&&&&************======**************&&&&&&&&$$$$&&&&",
"&&&&****$$$$$$$$&&&&&&&&&&&&&&&&&&&&&&&&&&&&&&&&$$$$$$$$****&&&&",
"&&&&****$$$$$$$$&&&&&&&&&&&&&&&&&&&&&&&&&&&&&&&&$$$$$$$$****&&&&",
"&&&&****$$$$$$$$&&&&&&&&&&&&&&&&&&&&&&&&&&&&&&&&$$$$$$$$****&&&&",
"    &&&&%%%%%%%%$$$$$$$$$$$$$$$$$$$$$$$$$$$$$$$$%%%%****&&&&    ",
"    &&&&%%%%%%%%$$$$$$$$$$$$$$$$$$$$$$$$$$$$$$$$%%%%****&&&&    ",
"    &&&&%%%%%%%%$$$$$$$$$$$$$$$$$$$$$$$$$$$$$$$$%%%%****&&&&    ",
"    &&&&%%%%%%%%%%%%%%%%%%%%%%%%%%%%%%%%%%%%%%%%%%%%****&&&&    ",
"    &&&&%%%%%%%%%%%%%%%%%%%%%%%%%%%%%%%%%%%%%%%%%%%%****&&&&    ",
"    &&&&%%%%%%%%%%%%%%%%%%%%%%%%%%%%%%%%%%%%%%%%%%%%****&&&&    ",
"    &&&&%%%%%%%%%%%%%%%%%%%%%%%%%%%%%%%%%%%%%%%%%%%%****&&&&    ",
"    &&&&%%%%%%%%%%%%%%%%%%%%%%%%%%%%%%%%%%%%%%%%%%%%****&&&&    ",
"    &&&&%%%%%%%%%%%%%%%%%%%%%%%%%%%%%%%%%%%%%%%%%%%%****&&&&    ",
"        &&&&%%%%%%%%%%%%%%%%%%%%%%%%%%%%%%%%%%%%****&&&&        ",
"        &&&&%%%%%%%%%%%%%%%%%%%%%%%%%%%%%%%%%%%%****&&&&        ",
"        &&&&%%%%%%%%%%%%%%%%%%%%%%%%%%%%%%%%%%%%****&&&&        ",
"        &&&&%%%%%%%%%%%%%%%%%%%%%%%%%%%%%%%%%%%%****&&&&        ",
"        &&&&%%%%%%%%%%%%%%%%%%%%%%%%%%%%%%%%%%%%****&&&&        ",
"        &&&&%%%%%%%%%%%%%%%%%%%%%%%%%%%%%%%%%%%%****&&&&        ",
"        &&&&****%%%%%%%%%%%%%%%%%%%%%%%%%%%%********&&&&        ",
"        &&&&****%%%%%%%%%%%%%%%%%%%%%%%%%%%%********&&&&        ",
"        &&&&****%%%%%%%%%%%%%%%%%%%%%%%%%%%%********&&&&        ",
"            &&&&********************************&&&&            ",
"            &&&&********************************&&&&            ",
"            &&&&********************************&&&&            ",
"                &&&&&&&&&&&&&&&&&&&&&&&&&&&&&&&&                ",
"                &&&&&&&&&&&&&&&&&&&&&&&&&&&&&&&&                ",
"                &&&&&&&&&&&&&&&&&&&&&&&&&&&&&&&&                "};
